HIERARCHY
ROOT Hips
{
	OFFSET -14.64140 90.27770 -84.91600
	CHANNELS 6 Xposition Yposition Zposition Zrotation Xrotation Yrotation
	JOINT Spine
	{
		OFFSET 0.00000 13.20850 -1.60436
		CHANNELS 3 Zrotation Xrotation Yrotation
		JOINT Spine1
		{
			OFFSET 0.00000 8.61716 0.00000
			CHANNELS 3 Zrotation Xrotation Yrotation
			JOINT Spine2
			{
				OFFSET 0.00000 8.61717 0.00000
				CHANNELS 3 Zrotation Xrotation Yrotation
				JOINT Spine3
				{
					OFFSET 0.00000 8.61717 0.00000
					CHANNELS 3 Zrotation Xrotation Yrotation
					JOINT Neck
					{
						OFFSET 0.00000 11.07920 1.10792
						CHANNELS 3 Zrotation Xrotation Yrotation
						JOINT Neck1
						{
							OFFSET 0.00000 7.08032 0.00000
							CHANNELS 3 Zrotation Xrotation Yrotation
							JOINT Head
							{
								OFFSET 0.00000 7.08031 0.00000
								CHANNELS 3 Zrotation Xrotation Yrotation
								End site
								{
									OFFSET 0.00000 0.00000 0.00000
								}
							}
						}
					}
					JOINT RightShoulder
					{
						OFFSET -0.01000 7.91373 5.19711
						CHANNELS 3 Zrotation Xrotation Yrotation
						JOINT RightArm
						{
							OFFSET -18.41580 0.00000 0.00000
							CHANNELS 3 Zrotation Xrotation Yrotation
							JOINT RightForeArm
							{
								OFFSET -29.11090 0.00000 0.00000
								CHANNELS 3 Zrotation Xrotation Yrotation
								JOINT RightHand
								{
									OFFSET -24.65040 0.00000 0.00000
									CHANNELS 3 Zrotation Xrotation Yrotation
									JOINT RightHandThumb1
									{
										OFFSET -5.35114 -0.85590 3.97906
										CHANNELS 3 Zrotation Xrotation Yrotation
										JOINT RightHandThumb2
										{
											OFFSET -4.52789 0.00000 0.00000
											CHANNELS 3 Zrotation Xrotation Yrotation
											JOINT RightHandThumb3
											{
												OFFSET -2.46976 0.00000 0.00000
												CHANNELS 3 Zrotation Xrotation Yrotation
												End site
												{
													OFFSET 0.00000 0.00000 0.00000
												}
											}
										}
									}
									JOINT RightHandIndex1
									{
										OFFSET -14.26970 0.00000 2.88139
										CHANNELS 3 Zrotation Xrotation Yrotation
										JOINT RightHandIndex2
										{
											OFFSET -5.48836 0.00000 0.00000
											CHANNELS 3 Zrotation Xrotation Yrotation
											JOINT RightHandIndex3
											{
												OFFSET -3.01859 0.00000 0.00000
												CHANNELS 3 Zrotation Xrotation Yrotation
												End site
												{
													OFFSET 0.00000 0.00000 0.00000
												}
											}
										}
									}
									JOINT RightHandMiddle1
									{
										OFFSET -14.26970 0.00000 -0.09147
										CHANNELS 3 Zrotation Xrotation Yrotation
										JOINT RightHandMiddle2
										{
											OFFSET -6.17441 0.00000 0.00000
											CHANNELS 3 Zrotation Xrotation Yrotation
											JOINT RightHandMiddle3
											{
												OFFSET -3.56743 0.00000 0.00000
												CHANNELS 3 Zrotation Xrotation Yrotation
												End site
												{
													OFFSET 0.00000 0.00000 0.00000
												}
											}
										}
									}
									JOINT RightHandRing1
									{
										OFFSET -12.69180 0.00000 -3.06433
										CHANNELS 3 Zrotation Xrotation Yrotation
										JOINT RightHandRing2
										{
											OFFSET -5.62556 0.00000 0.00000
											CHANNELS 3 Zrotation Xrotation Yrotation
											JOINT RightHandRing3
											{
												OFFSET -3.56744 0.00000 0.00000
												CHANNELS 3 Zrotation Xrotation Yrotation
												End site
												{
													OFFSET 0.00000 0.00000 0.00000
												}
											}
										}
									}
									JOINT RightHandPinky1
									{
										OFFSET -11.11390 0.00000 -6.03719
										CHANNELS 3 Zrotation Xrotation Yrotation
										JOINT RightHandPinky2
										{
											OFFSET -4.52789 0.00000 0.00000
											CHANNELS 3 Zrotation Xrotation Yrotation
											JOINT RightHandPinky3
											{
												OFFSET -2.46976 0.00000 0.00000
												CHANNELS 3 Zrotation Xrotation Yrotation
												End site
												{
													OFFSET 0.00000 0.00000 0.00000
												}
											}
										}
									}
								}
							}
						}
					}
					JOINT LeftShoulder
					{
						OFFSET 0.01000 7.91373 5.19711
						CHANNELS 3 Zrotation Xrotation Yrotation
						JOINT LeftArm
						{
							OFFSET 18.41580 0.00000 0.00000
							CHANNELS 3 Zrotation Xrotation Yrotation
							JOINT LeftForeArm
							{
								OFFSET 29.11090 0.00000 0.00000
								CHANNELS 3 Zrotation Xrotation Yrotation
								JOINT LeftHand
								{
									OFFSET 24.65040 0.00000 0.00000
									CHANNELS 3 Zrotation Xrotation Yrotation
									JOINT LeftHandThumb1
									{
										OFFSET 5.35114 -0.85590 3.97906
										CHANNELS 3 Zrotation Xrotation Yrotation
										JOINT LeftHandThumb2
										{
											OFFSET 4.52789 0.00000 0.00000
											CHANNELS 3 Zrotation Xrotation Yrotation
											JOINT LeftHandThumb3
											{
												OFFSET 2.46977 0.00000 0.00000
												CHANNELS 3 Zrotation Xrotation Yrotation
												End site
												{
													OFFSET 0.00000 0.00000 0.00000
												}
											}
										}
									}
									JOINT LeftHandIndex1
									{
										OFFSET 14.26970 0.00000 2.88139
										CHANNELS 3 Zrotation Xrotation Yrotation
										JOINT LeftHandIndex2
										{
											OFFSET 5.48836 0.00000 0.00000
											CHANNELS 3 Zrotation Xrotation Yrotation
											JOINT LeftHandIndex3
											{
												OFFSET 3.01859 0.00000 0.00000
												CHANNELS 3 Zrotation Xrotation Yrotation
												End site
												{
													OFFSET 0.00000 0.00000 0.00000
												}
											}
										}
									}
									JOINT LeftHandMiddle1
									{
										OFFSET 14.26970 0.00000 -0.09147
										CHANNELS 3 Zrotation Xrotation Yrotation
										JOINT LeftHandMiddle2
										{
											OFFSET 6.17440 0.00000 0.00000
											CHANNELS 3 Zrotation Xrotation Yrotation
											JOINT LeftHandMiddle3
											{
												OFFSET 3.56744 0.00000 0.00000
												CHANNELS 3 Zrotation Xrotation Yrotation
												End site
												{
													OFFSET 0.00000 0.00000 0.00000
												}
											}
										}
									}
									JOINT LeftHandRing1
									{
										OFFSET 12.69180 0.00000 -3.06433
										CHANNELS 3 Zrotation Xrotation Yrotation
										JOINT LeftHandRing2
										{
											OFFSET 5.62556 0.00000 0.00000
											CHANNELS 3 Zrotation Xrotation Yrotation
											JOINT LeftHandRing3
											{
												OFFSET 3.56744 0.00000 0.00000
												CHANNELS 3 Zrotation Xrotation Yrotation
												End site
												{
													OFFSET 0.00000 0.00000 0.00000
												}
											}
										}
									}
									JOINT LeftHandPinky1
									{
										OFFSET 11.11390 0.00000 -6.03719
										CHANNELS 3 Zrotation Xrotation Yrotation
										JOINT LeftHandPinky2
										{
											OFFSET 4.52789 0.00000 0.00000
											CHANNELS 3 Zrotation Xrotation Yrotation
											JOINT LeftHandPinky3
											{
												OFFSET 2.46976 0.00000 0.00000
												CHANNELS 3 Zrotation Xrotation Yrotation
												End site
												{
													OFFSET 0.00000 0.00000 0.00000
												}
											}
										}
									}
								}
							}
						}
					}
					JOINT pCube4
					{
						OFFSET 0.00000 10.91090 1.10792
						CHANNELS 3 Zrotation Xrotation Yrotation
						End site
						{
							OFFSET 0.00000 0.00000 0.00000
						}
					}
				}
			}
		}
	}
	JOINT RightUpLeg
	{
		OFFSET -9.98441 0.00000 0.00000
		CHANNELS 3 Zrotation Xrotation Yrotation
		JOINT RightLeg
		{
			OFFSET 0.00000 -42.11790 0.00000
			CHANNELS 3 Zrotation Xrotation Yrotation
			JOINT RightFoot
			{
				OFFSET 0.00000 -45.00020 -0.00001
				CHANNELS 3 Zrotation Xrotation Yrotation
				JOINT RightForeFoot
				{
					OFFSET 0.00000 -3.74820 0.00000
					CHANNELS 3 Zrotation Xrotation Yrotation
					JOINT RightToeBase
					{
						OFFSET 0.00000 0.06325 14.43120
						CHANNELS 3 Zrotation Xrotation Yrotation
						End site
						{
							OFFSET 0.00000 0.00000 0.00000
						}
					}
				}
			}
		}
	}
	JOINT LeftUpLeg
	{
		OFFSET 9.98441 0.00000 0.00000
		CHANNELS 3 Zrotation Xrotation Yrotation
		JOINT LeftLeg
		{
			OFFSET 0.00000 -42.11800 0.00000
			CHANNELS 3 Zrotation Xrotation Yrotation
			JOINT LeftFoot
			{
				OFFSET 0.00000 -45.00070 0.00000
				CHANNELS 3 Zrotation Xrotation Yrotation
				JOINT LeftForeFoot
				{
					OFFSET 0.00000 -3.74824 0.00000
					CHANNELS 3 Zrotation Xrotation Yrotation
					JOINT LeftToeBase
					{
						OFFSET 0.00000 0.06325 14.43110
						CHANNELS 3 Zrotation Xrotation Yrotation
						End site
						{
							OFFSET 0.00000 0.00000 0.00000
						}
					}
				}
			}
		}
	}
}
MOTION
Frames: 4
Frame Time: 0.050000
-0.04986076015074478 -0.02486132598160678 0.031309367489408484 -0.015249055816730809 -0.04025798014592775 0.018935311967512775 -3.015651383481064 0.5682662697642673 -0.6453546163642022 -1.0101012360708157 3.7953728607725292 0.3755627500869252 -1.3799629966393743 -2.181721645457788 0.032360858708566205 0.021055352353770297 0.32607331999650374 -0.7078632674688459 0.7557200443879856 14.081954058326088 -1.5637960825278807 0.2369912766366503 0.2957710593427945 -6.41679937773626 0.867595174050499 -14.56622470210144 -0.5149976958528267 -7.435506812504702 2.465167743018117 -13.290032768682728 75.12810786433512 10.543450563894593 31.565836275961164 26.801393736360854 5.736101386785525 76.85373027377325 18.09467578955154 -0.37102038452966885 -1.5227442123869397 4.533939981915558 -0.15385020202088467 -1.5845362639962974 -0.00857875828652816 0.04055418721598808 -56.22289357921477 0.0007319367891049386 1.7370904434502095e-06 -56.24227615618975 -38.79204151431444 0.008465730234412947 0.031903397963114845 0.005860268418560794 -0.015451423759067223 -0.04157696547101204 0.02184946222806277 -0.040245544583197394 0.027319400819818013 -36.654025052426675 0.01919398475491039 0.00974766689234413 0.024357993376215515 0.005114175128850654 -0.030225748973061965 0.02612900096642185 0.0008212157486096283 -0.045921052035867 -19.7306929233987 -0.01809713565030217 -0.044613841730610566 0.023031538729279488 -0.0022907997100349415 -0.008034694140693284 0.030470206312782928 0.015166742261519857 0.026516462460884616 24.058520708436195 0.021122048253576307 -0.0015181410282792292 28.82439913316914 0.012016529988340437 0.013134067319834276 28.837413272461447 0.03660399871348388 -0.009181344291716869 5.871738547625985 1.398129762044712 12.013726414098114 -67.8441726212512 24.82668492000635 -12.615950500738942 -15.095138059106938 -1.0866929256595814 -69.74906809145597 -8.8669050429951 3.8989973643348357 -1.7924228627005159 -0.48659230111623997 0.046393812267319215 -8.134316129690937 0.027752553208543074 -0.0009063793871972172 44.54863106081839 0.040603086858669424 -0.04628930203271319 44.541637778083036 12.443233610569079 0.0034568822783524735 0.017211522610953746 -0.04709330921993991 -0.02460635197755709 -0.0188737171098783 0.03567168216462602 -0.008110144953170816 0.003587585795517612 11.085193433312016 -0.01832882687029134 -0.018105631349676007 0.04237097312765174 -0.02738818179779197 -0.03181550644768321 -0.003393720639925437 0.037266518988494785 0.029624323988708415 4.746564836736211 -0.0060022109335776865 0.014395884968023364 -0.03097632470329664 -0.0027601832041591686 -0.0053830458753216055 0.00015420565034647077 0.003966155256042477 -0.0007691703433495077 -5.600855023209713 0.0012477489560043997 -0.024562721801702162 -6.748028268040794 0.023916787420614975 0.01708656914188409 -6.682392326159252 0.020966505476018645 0.037966156356598973 0.024198941651644826 -0.020188825965297398 -0.0164061596300737 8.038537223096192 3.4550606072897607 -19.19843985262598 0.004815751544708623 10.43327861405917 0.016952921221622695 -5.663866860081611 -15.648038535830997 3.171015216964884 0.008306828829023033 -0.010399208583916738 0.012967262835101717 0.00496584667406534 4.746110098961528 0.01722504463156306 12.423958537119816 -8.217931081063123 6.905503800180196 -0.04467705709627241 46.375141963057274 -0.012599387173123392 -4.365031607324108 -14.74970068853727 -3.8311679584120575 0.006829645516139624 -0.03517978652987508 -0.030302819842154848 0.01317480888944092 -10.781332619273952 -0.03584371114924415 
0.009955115763201537 -0.03810849796834275 -0.029947165374324947 -0.020037132684487115 -0.0035799189778137237 0.020731173834018887 -2.865795219711733 0.44063601564905946 -0.6684598486292803 -0.9480197646404777 3.776334787311609 0.4068483725229891 -1.3586261226887777 -2.1860108811530257 0.005738744100190221 0.1545019586651299 0.29466511258328243 -0.7075460611441367 0.7470271091404961 14.03216830648345 -1.812215037849641 0.2339228203701591 0.33047832930777493 -6.938880915140067 0.9506179610731273 -14.55273444625297 -0.5148830603124462 -7.463915459149755 2.3646400082010723 -13.176461906725041 74.52718998529653 9.274342272544168 31.25319193609505 32.16709867340904 5.8629036039203735 78.73155501497378 19.07593150569406 -0.3419838115516145 -1.7878261106258924 4.513066755262457 -0.10484742288717006 -1.557402073471072 0.031941854954983015 -0.0258220295718527 -56.28105975708225 -0.04895331370537002 -0.010289088128803093 -56.28320743637915 -38.80643117267581 -0.02362674531223986 -0.03799452173528763 -0.046032132513905144 -0.049404374523618406 -0.015805654101841003 -0.043990635483709795 0.032140382925063146 -0.03802415405729981 -36.679285842228005 -0.023836527534466963 0.02126692730331475 0.020550529666845733 -0.009983574397925929 -0.008211783999475397 0.021823478226345353 -0.04195525765321288 -0.020068636132837155 -19.806016731818584 -0.04588581548911626 -0.012806256846590999 0.021460715172012573 0.016954676994931105 -0.03251259578895977 0.04891804185396552 0.02644508193123983 0.014026061210059004 24.0580371123268 -0.022952029923405202 0.02146226049017707 28.86517125269813 0.023034094003912167 -0.024220248548219896 28.90356570535023 0.005113377514735915 -0.02271610480150156 6.069598620128109 1.4017922019512477 12.049148785187205 -67.43883357726243 22.987304501340553 -13.908937537102178 -20.934510787486264 2.4289372281713484 -74.2734696215973 -9.296785317645085 3.9202277366071243 -1.9931123062035434 -0.43293086221775506 0.05184207362686787 -8.11572586466218 0.020485552645143457 0.03132585040836801 44.54714502120241 -0.003031687453852434 0.03486634894445494 44.529798643350816 12.496065494301465 0.018746121133101364 0.00914408299112825 -0.016530498868288394 0.033599165375718255 -0.04033533815571361 -0.011020853609187009 -0.03763368170271644 0.006034037856696469 11.123476505124202 -0.03324850392369936 0.011944410747101529 0.02607631669413075 0.015787608289915288 0.03009144209554177 -0.023221983402451407 0.03164739292112629 0.018252814857267385 4.792537067876287 0.03621183678733671 -0.04306196786463865 -0.017830846152725784 0.025187086316437693 0.010356529046170888 0.023934346973023424 0.021104788617243 0.04251158252362547 -5.556876733541922 -0.013689818073105441 -0.010731557291387712 -6.74163748659124 -0.03051085171155905 -0.03461441402308939 -6.694729643474337 0.04430176772484439 0.0026197509366520924 -0.017948092017239282 -0.03653755312181882 0.020965581444718422 8.032407415810647 3.538648463671712 -19.212462923461718 0.017288168108434494 10.418516767068644 -0.0248115250031048 -5.630618163432732 -15.699284939529878 3.2368976264142617 0.04971704564750282 -0.028242825920899817 -0.019347625863669442 0.04864386646293332 4.690939598401643 -0.013093434772318474 12.470741620982873 -8.210675388673227 6.8785392386877815 -0.04118414393281965 46.39947822888133 0.015925142340467994 -4.317354885157807 -14.715630983024267 -3.790106619769763 0.043827154366110836 -0.031256608669374235 -0.010430572758761586 -0.023111875630513864 -10.75047098676455 0.021115616539864615 
-0.0455718848727821 0.02469959392069186 -0.04256352759542442 -0.005765622033988625 -0.027208173658613673 0.015074269483858161 -2.7596891437590823 0.23328534085648372 -0.7266098419558902 -0.8680843139815633 3.77397119988651 0.40634269732541467 -1.3309594801528881 -2.197385116846449 -0.1156500089350598 0.11552017049547889 0.18681137902122674 -0.7100946830873109 0.8192009199736969 14.088837833015939 -2.01980547510344 0.22532393576044454 0.36950696682611844 -7.263539050196283 0.9712712370073252 -14.462944296468512 -0.5371858123442366 -7.530234450975032 2.4524372287003606 -13.209695598469358 73.98779343071797 6.791655271313675 31.639135237047586 39.28555768944597 5.505904891084214 82.71647721112942 19.823611570306436 -0.32192086507157086 -2.005061839725902 4.503522559111757 -0.13010817014556028 -1.5951513988040948 -0.004352801789537455 0.03171582643723581 -56.22432506856348 0.040792978618711395 0.005496691400110777 -56.28089322477373 -38.751834434014626 -0.044895635674020266 0.0005545339600950567 -0.03910029161909982 -0.03636151529373916 0.015780814091804946 0.03873800819147553 -0.012410997053726693 0.02161057799678126 -36.67050423815494 0.045288811653229295 -0.006188144569891872 0.004743998928114467 0.003696954481365395 -0.0055799199763061835 -0.016857089254244787 -0.0170525690058753 -0.0461859883584596 -19.79720617798621 -0.0006243984220715058 -0.011217041618587113 -0.043099271939067665 0.00535396108235931 -0.04920223486019211 0.018495614629176586 0.0020033228358311353 -0.0418109411965422 24.04349800775828 -0.009370522426534078 -0.005616915989768743 28.83007432382286 0.04474077269303443 0.010995836642473023 28.885102571796963 0.0043677771022803576 -0.014824860406933354 6.471622642873367 1.5632675113042371 11.992116346307936 -67.2516310487916 21.15309760448158 -15.261986347347682 -29.085473681129244 6.095050230228031 -81.08514201294408 -9.99287267067418 3.970953295754772 -2.3647281545361056 -0.4631404377744384 0.0878286525540842 -8.087147836350622 -0.00033542171587083237 -0.00043881750568933734 44.58367053764726 0.02700480268700501 -0.02815451137959996 44.60362156067363 12.509866255284766 0.0038173511543404433 -0.033341661971032374 -0.006216286179654962 0.01181878417983786 0.0015601733356507914 0.018502491307862277 -0.030112244305273417 -0.019495108213874728 11.10511547245981 0.016205485804328467 0.04119013579819058 -0.030649917137386105 0.017779885500453858 0.04155219806360777 -0.049586317466256906 -0.0008009847213131191 0.01576435000699517 4.783476691032997 0.006057650242215199 0.0023731684686603594 0.00406103933919582 -0.03508459576082279 -0.023220261883097712 -0.005683675985182463 0.00037252257212856124 -0.005721975713879989 -5.600805187470086 0.04999696194952476 -0.02819481889007613 -6.755722478000435 0.003119625955946487 -0.033221191389737816 -6.735113041025892 0.03210981022770877 0.01016333236879573 -0.04578246803282743 -0.02250709823746676 -0.019697017286077857 8.03164980850832 3.520033704647511 -19.190299460057158 0.01258084536249578 10.380146875892189 0.007020543440394052 -5.614712701280898 -15.704877370574847 3.1985641962892886 -0.021700016618093457 -0.04850606148916851 -0.030597255625354834 0.019881036024048993 4.719425555206106 0.038977879998827784 12.44433206550943 -8.210725579229564 6.899598219010576 -0.04258833167487134 46.38453337814893 0.03321653569350475 -4.317735836223285 -14.71239060521229 -3.837773160077819 -0.034690620843032136 0.017388129018030527 0.02555162591250675 0.001785344356527386 -10.705123535344024 -0.017003910972305383 
0.028231895580884694 0.017033972900924545 -0.007715772395517715 -0.04505971168835553 -0.010861118281912524 -0.016473974350488165 -2.7255559116332484 0.09478278478087995 -0.7316307248013563 -0.9155218775384807 3.750475519405195 0.38635450702347296 -1.3016262122611497 -2.2760979263392582 -0.24540853962936754 0.158692587144808 0.05255108224192366 -0.7475040374765279 0.7561155063827725 14.210247955294859 -2.1364625973746 0.21303142436445335 0.42935986387075553 -7.374012852944807 1.0106909068568297 -14.3663242474817 -0.6282586981387575 -7.718752157103047 2.4776370632670774 -13.335135401412899 73.14675632305128 3.358503431083233 32.43581612868199 46.450638567637824 4.34599561243519 87.351842995913 20.303318717252985 -0.3796852782870653 -2.139341516388919 4.539229368162723 -0.16466245881549796 -1.5988819310162847 -0.012590534715381617 0.022277064081414538 -56.23368982354723 -0.016714385496966317 0.011060015525965491 -56.236507768081566 -38.75398114887668 -0.01461119530079607 0.03344143789240291 0.019111584877594755 0.02453886394444331 0.03905935995772784 -0.004628187429008067 0.03870581641694844 0.018542294382709074 -36.713565119390694 -0.03602868532441264 0.01049935802112183 -0.02701119905464623 -0.034253434172599 -0.030865601986269555 -0.021815492908632775 0.03183191173105719 -0.04883390388870511 -19.723903393006356 0.04575738809790012 -0.008712382692573585 0.0018138625996072973 -0.018614820231461424 0.010339209510949843 -0.001307186979450268 -0.005987284796546285 0.012462836071484648 24.09537245313249 0.033787618925970146 -0.022266109330049293 28.855513963082014 0.04612074097531505 0.033295364543920423 28.851107412698422 -0.0356376632534346 -0.011712351139241614 6.773754156551489 1.597572405521958 11.91131480835879 -67.01743519263316 19.740033476372144 -16.459875559900702 -37.80490076537071 8.465570633335902 -88.59013325918893 -10.588510165439615 3.9495362738649633 -2.6335900520806943 -0.43545099000082643 0.06636030921561045 -8.145797539684864 0.010096258390610022 0.042848990139476836 44.58781497370104 -0.031680491461797584 -0.01056061518200912 44.53088228911413 12.496832304687846 0.003284693963519976 0.030790544233811456 -0.035046754996908534 -0.013217407104125467 -0.009539315427886542 0.0024156432118725814 -0.011264866539573891 -0.017578312124328897 11.110654682798293 0.03738607396226644 0.02353509782741139 -0.017187832095666634 -0.03766260840490605 0.025660230483217403 -0.03502217023970696 0.011138808436496651 -0.020522990899278823 4.757799288612651 -0.04286012213269273 0.010604579225626435 0.00010768922386046251 -0.006926648369779819 -0.010937627602594334 0.010673825077992445 -0.004585627229017805 0.04042697945532244 -5.583639239375048 -0.011394008204806938 -0.023240638367939423 -6.749687237015041 0.024477349121844374 0.03946338907838066 -6.681992411800192 -0.04756540950213702 -0.01761145196786005 0.04598409781869602 -0.030485414793356803 0.005068618580338622 8.051004247227159 3.512016558394575 -19.186755114545576 -0.008278737911048686 10.39718147935265 0.0607270517574766 -5.646329996601297 -15.62630998069845 3.2095917581384854 -0.017794119499538567 -0.04103752526317625 0.02020965095724568 -0.027405202306613953 4.6476161633010795 -0.036052287111660725 12.451961838057557 -8.244194742689315 6.926707096970093 0.005512418776458186 46.34121191529318 -0.00139523653086443 -4.305646295845829 -14.779846818218106 -3.8107088057604015 0.041884779117706154 -0.0276081741478474 -0.003803249810881819 0.04547345658286589 -10.704758822541885 -0.01926075011416413 
